<svg xmlns="http://www.w3.org/2000/svg" viewBox="-40.0 -40.0 4072.0 1674.0" width="460" height="189.1" role="img" aria-label="MODE LOUNGE">
  <path d="M668 420 472 74H403L208 411V0H64V700H191L440 265L685 700H812L813 0H669Z" transform="translate(517.2,700.0) scale(1,-1)" fill="#16130F"/>
  <path d="M22 350Q22 453 69.0 535.5Q116 618 199.0 665.0Q282 712 386 712Q489 712 572.0 665.0Q655 618 702.5 535.5Q750 453 750 350Q750 247 702.5 164.5Q655 82 572.0 35.0Q489 -12 386 -12Q282 -12 199.0 35.0Q116 82 69.0 164.5Q22 247 22 350ZM594 350Q594 415 567.0 466.0Q540 517 492.5 545.5Q445 574 386 574Q327 574 279.5 545.5Q232 517 205.0 466.0Q178 415 178 350Q178 285 205.0 234.0Q232 183 279.5 154.5Q327 126 386 126Q445 126 492.5 154.5Q540 183 567.0 234.0Q594 285 594 350Z" transform="translate(1376.2,700.0) scale(1,-1)" fill="#16130F"/>
  <path d="M733 350Q733 245 687.0 166.0Q641 87 557.5 43.5Q474 0 366 0H64V700H366Q474 700 557.5 656.5Q641 613 687.0 534.0Q733 455 733 350ZM577 350Q577 450 517.5 508.5Q458 567 358 567H218V133H358Q458 133 517.5 191.5Q577 250 577 350Z" transform="translate(2130.2,700.0) scale(1,-1)" fill="#16130F"/>
  <rect x="2970.8" y="560.0" width="504.0" height="140.0" fill="#16130F"/>
  <rect x="2970.8" y="280.0" width="504.0" height="140.0" fill="#16130F"/>
  <rect x="2970.8" y="0.0" width="504.0" height="140.0" fill="#16130F"/>
  <path d="M218 700V132H551V0H64V700Z" transform="translate(0.0,1582.0) scale(1,-1)" fill="#16130F"/>
  <path d="M22 350Q22 453 69.0 535.5Q116 618 199.0 665.0Q282 712 386 712Q489 712 572.0 665.0Q655 618 702.5 535.5Q750 453 750 350Q750 247 702.5 164.5Q655 82 572.0 35.0Q489 -12 386 -12Q282 -12 199.0 35.0Q116 82 69.0 164.5Q22 247 22 350ZM594 350Q594 415 567.0 466.0Q540 517 492.5 545.5Q445 574 386 574Q327 574 279.5 545.5Q232 517 205.0 466.0Q178 415 178 350Q178 285 205.0 234.0Q232 183 279.5 154.5Q327 126 386 126Q445 126 492.5 154.5Q540 183 567.0 234.0Q594 285 594 350Z" transform="translate(526.0,1582.0) scale(1,-1)" fill="#16130F"/>
  <path d="M58 308V700H212V314Q212 126 360 126Q433 126 470.5 171.5Q508 217 508 314V700H660V308Q660 154 581.0 71.0Q502 -12 359 -12Q216 -12 137.0 71.0Q58 154 58 308Z" transform="translate(1280.0,1582.0) scale(1,-1)" fill="#16130F"/>
  <path d="M674 0H547L216 425V0H64V700H191L522 275V700H674Z" transform="translate(1981.0,1582.0) scale(1,-1)" fill="#16130F"/>
  <path d="M654 361V77Q600 34 529.0 11.0Q458 -12 385 -12Q282 -12 199.0 34.5Q116 81 69.0 163.5Q22 246 22 350Q22 454 69.0 536.5Q116 619 199.5 665.5Q283 712 388 712Q476 712 547.0 681.0Q618 650 666 591L567 495Q497 574 395 574Q331 574 282.0 546.0Q233 518 205.5 467.0Q178 416 178 350Q178 285 205.5 234.0Q233 183 282.0 154.5Q331 126 394 126Q460 126 513 156V361Z" transform="translate(2701.0,1582.0) scale(1,-1)" fill="#16130F"/>
  <path d="M579 0H64V700H566V570H217V418H526V292H217V130H579Z" transform="translate(3385.0,1582.0) scale(1,-1)" fill="#16130F"/>
</svg>
