<svg xmlns="http://www.w3.org/2000/svg" width="745.89pt" height="137.78pt" viewBox="0 0 745.89 137.78" role="img" aria-label="GATHERING 모드">
  <g fill="currentColor"><path fill-rule="evenodd" d="M0 0 H745.889 V137.778 H0 Z M4.000 4.000 H741.889 V133.778 H4.000 Z"/><path transform="translate(46.000,107.778) scale(0.11111,-0.11111)" d="M630 350V83Q583 39 519.0 16.0Q455 -7 385 -7Q285 -7 205.0 39.0Q125 85 79.0 166.5Q33 248 33 350Q33 452 79.0 533.5Q125 615 205.5 661.0Q286 707 386 707Q463 707 527.0 681.0Q591 655 635 605L589 558Q510 640 389 640Q308 640 244.0 602.0Q180 564 143.5 498.0Q107 432 107 350Q107 268 143.5 202.0Q180 136 244.0 98.0Q308 60 389 60Q493 60 562 119V350Z"/><path transform="translate(129.222,107.778) scale(0.11111,-0.11111)" d="M142 187 63 0H-13L290 700H362L667 0H589L510 187ZM327 621 166 247H486Z"/><path transform="translate(206.778,107.778) scale(0.11111,-0.11111)" d="M-11 635V700H528V635H295V0H223V635Z"/><path transform="translate(269.222,107.778) scale(0.11111,-0.11111)" d="M639 0H565V322H154V0H81V700H154V389H565V700H639Z"/><path transform="translate(354.222,107.778) scale(0.11111,-0.11111)" d="M546 0H75V700H533V636H147V387H491V324H147V64H546Z"/><path transform="translate(424.556,107.778) scale(0.11111,-0.11111)" d="M324 222H147V0H75V700H324Q452 700 524.5 636.5Q597 573 597 461Q597 378 557.5 321.5Q518 265 445 241L608 0H527L375 226Q354 222 324 222ZM524 461Q524 545 472.0 590.0Q420 635 322 635H147V285H322Q420 285 472.0 330.5Q524 376 524 461Z"/><path transform="translate(500.556,107.778) scale(0.11111,-0.11111)" d="M165 700V0H93V700Z"/><path transform="translate(534.222,107.778) scale(0.11111,-0.11111)" d="M650 0H590L165 567V0H93V700H152L577 133V700H650Z"/><path transform="translate(621.667,107.778) scale(0.11111,-0.11111)" d="M630 350V83Q583 39 519.0 16.0Q455 -7 385 -7Q285 -7 205.0 39.0Q125 85 79.0 166.5Q33 248 33 350Q33 452 79.0 533.5Q125 615 205.5 661.0Q286 707 386 707Q463 707 527.0 681.0Q591 655 635 605L589 558Q510 640 389 640Q308 640 244.0 602.0Q180 564 143.5 498.0Q107 432 107 350Q107 268 143.5 202.0Q180 136 244.0 98.0Q308 60 389 60Q493 60 562 119V350Z"/></g>
</svg>
