<svg xmlns="http://www.w3.org/2000/svg" width="449.22pt" height="137.78pt" viewBox="0 0 449.22 137.78" role="img" aria-label="WORK 모드">
  <g fill="#16130F"><path fill-rule="evenodd" d="M0 0 H449.222 V137.778 H0 Z M4.000 4.000 H445.222 V133.778 H4.000 Z"/><path transform="translate(46.000,107.778) scale(0.11111,-0.11111)" d="M784 0H707L515 593L320 0H243L19 700H95L285 102L482 700H550L745 100L937 700H1008Z"/><path transform="translate(165.222,107.778) scale(0.11111,-0.11111)" d="M33 350Q33 451 78.5 532.5Q124 614 204.0 660.5Q284 707 383 707Q482 707 562.5 660.5Q643 614 688.5 532.5Q734 451 734 350Q734 249 688.5 167.5Q643 86 562.5 39.5Q482 -7 383 -7Q284 -7 204.0 39.5Q124 86 78.5 167.5Q33 249 33 350ZM661 350Q661 433 625.0 499.0Q589 565 525.5 602.5Q462 640 383 640Q305 640 242.0 602.5Q179 565 143.0 499.0Q107 433 107 350Q107 267 143.0 201.0Q179 135 242.0 97.5Q305 60 383 60Q462 60 525.5 97.5Q589 135 625.0 201.0Q661 267 661 350Z"/><path transform="translate(255.444,107.778) scale(0.11111,-0.11111)" d="M324 222H147V0H75V700H324Q452 700 524.5 636.5Q597 573 597 461Q597 378 557.5 321.5Q518 265 445 241L608 0H527L375 226Q354 222 324 222ZM524 461Q524 545 472.0 590.0Q420 635 322 635H147V285H322Q420 285 472.0 330.5Q524 376 524 461Z"/><path transform="translate(331.444,107.778) scale(0.11111,-0.11111)" d="M165 182V0H93V700H165V277L553 700H637L348 383L656 0H570L301 330Z"/></g>
</svg>
