<svg xmlns="http://www.w3.org/2000/svg" viewBox="0 0 100 100" width="100" height="100" role="img" aria-label="우산 UMBRELLA">
  <path fill="currentColor" fill-rule="evenodd" d="M45.64 14.46 L45.74 14.04 L45.86 13.67 L46.01 13.34 L46.17 13.05 L46.36 12.79 L46.56 12.56 L46.79 12.36 L47.05 12.17 L47.34 12.01 L47.67 11.86 L48.04 11.74 L48.46 11.64 L48.93 11.56 L49.44 11.52 L50.00 11.50 L50.56 11.52 L51.07 11.56 L51.54 11.64 L51.96 11.74 L52.33 11.86 L52.66 12.01 L52.95 12.17 L53.21 12.36 L53.44 12.56 L53.64 12.79 L53.83 13.05 L53.99 13.34 L54.14 13.67 L54.26 14.04 L54.36 14.46 L54.44 14.93 L54.48 15.44 L54.50 16.02 L54.50 20.00 L54.50 21.50 L57.50 21.50 L57.50 15.98 L57.48 15.26 L57.42 14.55 L57.31 13.87 L57.15 13.22 L56.94 12.59 L56.68 11.99 L56.36 11.43 L55.99 10.91 L55.56 10.44 L55.09 10.01 L54.57 9.64 L54.01 9.32 L53.41 9.06 L52.78 8.85 L52.13 8.69 L51.45 8.58 L50.74 8.52 L50.00 8.50 L49.26 8.52 L48.55 8.58 L47.87 8.69 L47.22 8.85 L46.59 9.06 L45.99 9.32 L45.43 9.64 L44.91 10.01 L44.44 10.44 L44.01 10.91 L43.64 11.43 L43.32 11.99 L43.06 12.59 L42.85 13.22 L42.69 13.87 L42.59 14.50 L42.50 14.50 L42.50 15.98 L42.46 17.46 L42.50 17.46 L42.50 35.50 L42.50 40.50 L38.50 40.50 L38.50 37.00 L38.50 35.50 L35.50 35.50 L35.50 40.50 L31.06 40.50 L44.00 89.92 L56.94 40.50 L52.50 40.50 L52.50 37.00 L52.50 35.50 L49.50 35.50 L49.50 40.50 L45.50 40.50 L45.50 37.00 L45.50 35.50 L45.50 16.02 L45.52 15.44 L45.56 14.93 L45.64 14.46 Z M45.50 43.50 L49.50 43.50 L52.50 43.50 L53.06 43.50 L44.00 78.08 L34.94 43.50 L35.50 43.50 L38.50 43.50 L42.50 43.50 L45.50 43.50 Z"/>
</svg>
