<svg xmlns="http://www.w3.org/2000/svg" viewBox="0 0 100 100" width="100" height="100" role="img" aria-label="와이파이 WI-FI">
  <path fill="currentColor" fill-rule="evenodd" d="M30.77 41.79 L34.00 40.01 L37.22 38.56 L40.43 37.44 L43.63 36.64 L46.82 36.16 L50.00 36.00 L53.18 36.16 L56.37 36.64 L59.57 37.44 L62.78 38.56 L66.00 40.01 L69.23 41.79 L72.47 43.90 L75.73 46.34 L79.03 49.14 L80.17 50.11 L82.11 47.83 L77.60 43.99 L74.19 41.44 L70.77 39.21 L67.34 37.32 L63.89 35.77 L60.43 34.56 L56.96 33.69 L53.48 33.17 L50.00 33.00 L46.52 33.17 L43.04 33.69 L39.57 34.56 L36.11 35.77 L32.66 37.32 L29.23 39.21 L25.81 41.44 L22.40 43.99 L19.03 46.86 L17.89 47.83 L19.83 50.11 L24.27 46.34 L27.53 43.90 L30.77 41.79 Z M37.44 51.29 L39.56 50.12 L41.67 49.17 L43.76 48.44 L45.85 47.92 L47.93 47.61 L50.00 47.50 L52.07 47.61 L54.15 47.92 L56.24 48.44 L58.33 49.17 L60.44 50.12 L62.56 51.29 L64.70 52.67 L66.84 54.28 L69.03 56.14 L70.17 57.11 L72.11 54.83 L68.71 51.94 L66.42 50.21 L64.10 48.71 L61.78 47.43 L59.45 46.38 L57.10 45.56 L54.74 44.97 L52.37 44.62 L50.00 44.50 L47.63 44.62 L45.26 44.97 L42.90 45.56 L40.55 46.38 L38.22 47.43 L35.90 48.71 L33.58 50.21 L31.29 51.94 L29.03 53.86 L27.89 54.83 L29.83 57.11 L33.16 54.28 L35.30 52.67 L37.44 51.29 Z M44.10 60.79 L45.11 60.23 L46.11 59.78 L47.10 59.44 L48.07 59.19 L49.04 59.05 L50.00 59.00 L50.96 59.05 L51.93 59.19 L52.90 59.44 L53.89 59.78 L54.89 60.23 L55.90 60.79 L56.92 61.45 L57.95 62.23 L59.03 63.14 L60.17 64.11 L62.11 61.83 L59.83 59.88 L58.64 58.99 L57.44 58.21 L56.23 57.55 L55.00 56.99 L53.76 56.56 L52.52 56.25 L51.26 56.06 L50.00 56.00 L48.74 56.06 L47.48 56.25 L46.24 56.56 L45.00 56.99 L43.77 57.55 L42.56 58.21 L41.36 58.99 L40.17 59.88 L39.03 60.86 L37.89 61.83 L39.83 64.11 L42.05 62.23 L43.08 61.45 L44.10 60.79 Z M53.77 75.50 L53.73 75.26 L53.67 75.02 L53.60 74.78 L53.51 74.55 L53.41 74.32 L53.29 74.10 L53.16 73.89 L53.01 73.69 L52.86 73.49 L52.69 73.31 L52.51 73.14 L52.31 72.99 L52.11 72.84 L51.90 72.71 L51.68 72.59 L51.45 72.49 L51.22 72.40 L50.98 72.33 L50.74 72.27 L50.50 72.23 L50.25 72.21 L50.00 72.20 L49.75 72.21 L49.50 72.23 L49.26 72.27 L49.02 72.33 L48.78 72.40 L48.55 72.49 L48.32 72.59 L48.10 72.71 L47.89 72.84 L47.69 72.99 L47.49 73.14 L47.31 73.31 L47.14 73.49 L46.99 73.69 L46.84 73.89 L46.71 74.10 L46.59 74.32 L46.49 74.55 L46.40 74.78 L46.33 75.02 L46.27 75.26 L46.23 75.50 L46.21 75.75 L46.20 76.00 L46.21 76.25 L46.23 76.50 L46.27 76.74 L46.33 76.98 L46.40 77.22 L46.49 77.45 L46.59 77.68 L46.71 77.90 L46.84 78.11 L46.99 78.31 L47.14 78.51 L47.31 78.69 L47.49 78.86 L47.69 79.01 L47.89 79.16 L48.10 79.29 L48.32 79.41 L48.55 79.51 L48.78 79.60 L49.02 79.67 L49.26 79.73 L49.50 79.77 L49.75 79.79 L50.00 79.80 L50.25 79.79 L50.50 79.77 L50.74 79.73 L50.98 79.67 L51.22 79.60 L51.45 79.51 L51.68 79.41 L51.90 79.29 L52.11 79.16 L52.31 79.01 L52.51 78.86 L52.69 78.69 L52.86 78.51 L53.01 78.31 L53.16 78.11 L53.29 77.90 L53.41 77.68 L53.51 77.45 L53.60 77.22 L53.67 76.98 L53.73 76.74 L53.77 76.50 L53.79 76.25 L53.80 76.00 L53.79 75.75 L53.77 75.50 Z"/>
</svg>
