<svg xmlns="http://www.w3.org/2000/svg" width="439.33pt" height="137.78pt" viewBox="0 0 439.33 137.78" role="img" aria-label="CLASS 모드">
  <g fill="#ffffff"><path fill-rule="evenodd" d="M0 0 H439.333 V137.778 H0 Z M4.000 4.000 H435.333 V133.778 H4.000 Z"/><path transform="translate(46.000,107.778) scale(0.11111,-0.11111)" d="M33 350Q33 451 78.5 532.5Q124 614 204.0 660.5Q284 707 382 707Q457 707 520.0 680.5Q583 654 628 603L581 557Q504 640 386 640Q307 640 243.0 602.0Q179 564 143.0 498.0Q107 432 107 350Q107 268 143.0 202.0Q179 136 243.0 98.0Q307 60 386 60Q503 60 581 144L628 98Q583 47 520.0 20.0Q457 -7 382 -7Q284 -7 204.0 39.5Q124 86 78.5 167.5Q33 249 33 350Z"/><path transform="translate(123.556,107.778) scale(0.11111,-0.11111)" d="M165 700V65H536V0H93V700Z"/><path transform="translate(187.444,107.778) scale(0.11111,-0.11111)" d="M142 187 63 0H-13L290 700H362L667 0H589L510 187ZM327 621 166 247H486Z"/><path transform="translate(265.000,107.778) scale(0.11111,-0.11111)" d="M29 85 57 142Q94 104 153.5 80.5Q213 57 277 57Q365 57 409.5 91.5Q454 126 454 180Q454 222 430.0 247.5Q406 273 370.0 286.5Q334 300 272 316Q198 336 153.5 354.5Q109 373 77.5 411.0Q46 449 46 514Q46 567 73.0 611.0Q100 655 154.5 681.0Q209 707 290 707Q348 707 403.0 690.0Q458 673 499 643L474 584Q433 613 385.0 628.0Q337 643 291 643Q205 643 161.5 607.5Q118 572 118 517Q118 475 142.0 449.0Q166 423 202.5 409.5Q239 396 301 380Q374 361 418.5 342.5Q463 324 494.5 286.0Q526 248 526 185Q526 132 498.5 88.5Q471 45 415.0 19.0Q359 -7 277 -7Q203 -7 135.5 18.5Q68 44 29 85Z"/><path transform="translate(331.667,107.778) scale(0.11111,-0.11111)" d="M29 85 57 142Q94 104 153.5 80.5Q213 57 277 57Q365 57 409.5 91.5Q454 126 454 180Q454 222 430.0 247.5Q406 273 370.0 286.5Q334 300 272 316Q198 336 153.5 354.5Q109 373 77.5 411.0Q46 449 46 514Q46 567 73.0 611.0Q100 655 154.5 681.0Q209 707 290 707Q348 707 403.0 690.0Q458 673 499 643L474 584Q433 613 385.0 628.0Q337 643 291 643Q205 643 161.5 607.5Q118 572 118 517Q118 475 142.0 449.0Q166 423 202.5 409.5Q239 396 301 380Q374 361 418.5 342.5Q463 324 494.5 286.0Q526 248 526 185Q526 132 498.5 88.5Q471 45 415.0 19.0Q359 -7 277 -7Q203 -7 135.5 18.5Q68 44 29 85Z"/></g>
</svg>
