<svg xmlns="http://www.w3.org/2000/svg" viewBox="0 0 100 100" width="100" height="100" role="img" aria-label="룸 ROOM">
  <g fill="none" stroke="currentColor" stroke-width="3" stroke-linecap="square" stroke-linejoin="miter">
    <path d="M20,52 L20,46 Q20,42 24,42 Q28,42 28,46 L28,64 L20,64 Z"/>
    <path d="M80,52 L80,46 Q80,42 76,42 Q72,42 72,46 L72,64 L80,64 Z"/>
    <path d="M28,46 L28,40 Q28,36 33,36 L67,36 Q72,36 72,40 L72,46"/>
    <path d="M28,52 L72,52"/>
    <path d="M28,64 L72,64"/>
    <path d="M25,64 L25,71"/><path d="M75,64 L75,71"/>
  </g>
</svg>
