<svg xmlns="http://www.w3.org/2000/svg" viewBox="0 0 100 100" width="100" height="100" role="img" aria-label="금연 NO SMOKING">
  <path fill="currentColor" fill-rule="evenodd" d="M75.95 53.78 L75.07 51.98 L84.96 47.16 L79.26 35.47 L69.37 40.29 L69.15 39.85 L68.50 38.50 L65.80 39.81 L66.68 41.61 L47.80 50.82 L53.50 62.50 L72.38 53.29 L72.60 53.74 L73.25 55.09 L75.95 53.78 Z M77.88 39.48 L80.95 45.78 L73.76 49.28 L70.69 42.99 L77.88 39.48 Z M54.88 58.49 L51.81 52.20 L67.99 44.31 L71.06 50.60 L54.88 58.49 Z M38.85 35.74 L38.19 34.40 L35.50 35.71 L56.25 78.46 L56.91 79.80 L59.60 78.49 L38.85 35.74 Z M24.54 70.14 L24.17 69.57 L23.86 69.01 L23.62 68.46 L23.44 67.92 L23.32 67.39 L23.25 66.88 L23.23 66.36 L23.27 65.85 L23.36 65.33 L23.50 64.80 L23.70 64.25 L23.97 63.70 L24.30 63.13 L24.69 62.55 L25.18 61.92 L25.73 61.22 L26.25 60.47 L26.69 59.70 L27.06 58.92 L27.36 58.13 L27.58 57.33 L27.72 56.51 L27.77 55.69 L27.75 54.88 L27.64 54.06 L27.45 53.25 L27.18 52.46 L26.83 51.67 L26.42 50.90 L25.93 50.14 L25.37 49.40 L24.75 48.66 L24.09 47.97 L23.06 46.88 L20.88 48.94 L22.52 50.67 L23.02 51.27 L23.46 51.86 L23.83 52.43 L24.14 52.99 L24.38 53.54 L24.56 54.08 L24.68 54.61 L24.75 55.12 L24.77 55.64 L24.73 56.15 L24.64 56.67 L24.50 57.20 L24.30 57.75 L24.03 58.30 L23.70 58.87 L23.31 59.45 L22.82 60.08 L22.27 60.78 L21.75 61.53 L21.31 62.30 L20.94 63.08 L20.64 63.87 L20.42 64.67 L20.28 65.49 L20.23 66.31 L20.25 67.12 L20.36 67.94 L20.55 68.75 L20.82 69.54 L21.17 70.33 L21.58 71.10 L22.07 71.86 L22.63 72.60 L23.25 73.34 L23.91 74.03 L24.94 75.12 L27.12 73.06 L25.48 71.33 L24.98 70.73 L24.54 70.14 Z M35.53 71.27 L38.22 69.95 L48.11 65.13 L42.41 53.45 L31.38 58.83 L29.83 59.58 L26.23 61.34 L31.93 73.02 L35.53 71.27 L35.53 71.27 Z M33.31 69.01 L30.24 62.72 L31.14 62.28 L34.21 68.57 L33.31 69.01 Z M36.91 67.26 L33.84 60.96 L41.03 57.46 L44.10 63.75 L36.91 67.26 Z"/>
</svg>
