<svg xmlns="http://www.w3.org/2000/svg" viewBox="0 0 100 100" width="100" height="100" role="img" aria-label="금지 NO ENTRY">
  <path fill="currentColor" fill-rule="evenodd" d="M81.43 47.94 L81.23 45.89 L80.90 43.85 L80.43 41.85 L79.83 39.87 L79.10 37.95 L78.25 36.07 L77.28 34.25 L76.19 32.50 L74.99 30.82 L73.68 29.23 L72.27 27.73 L70.77 26.32 L69.18 25.01 L67.50 23.81 L65.75 22.72 L63.93 21.75 L62.05 20.90 L60.13 20.17 L58.15 19.57 L56.15 19.10 L54.11 18.77 L52.06 18.57 L50.00 18.50 L47.94 18.57 L45.89 18.77 L43.85 19.10 L41.85 19.57 L39.87 20.17 L37.95 20.90 L36.07 21.75 L34.25 22.72 L32.50 23.81 L30.82 25.01 L29.23 26.32 L27.73 27.73 L26.32 29.23 L25.01 30.82 L23.81 32.50 L22.72 34.25 L21.75 36.07 L20.90 37.95 L20.17 39.87 L19.57 41.85 L19.10 43.85 L18.77 45.89 L18.57 47.94 L18.50 50.00 L18.57 52.06 L18.77 54.11 L19.10 56.15 L19.57 58.15 L20.17 60.13 L20.90 62.05 L21.75 63.93 L22.72 65.75 L23.81 67.50 L25.01 69.18 L26.32 70.77 L27.73 72.27 L29.23 73.68 L30.82 74.99 L32.50 76.19 L34.25 77.28 L36.07 78.25 L37.95 79.10 L39.87 79.83 L41.85 80.43 L43.85 80.90 L45.89 81.23 L47.94 81.43 L50.00 81.50 L52.06 81.43 L54.11 81.23 L56.15 80.90 L58.15 80.43 L60.13 79.83 L62.05 79.10 L63.93 78.25 L65.75 77.28 L67.50 76.19 L69.18 74.99 L70.77 73.68 L72.27 72.27 L73.68 70.77 L74.99 69.18 L76.19 67.50 L77.28 65.75 L78.25 63.93 L79.10 62.05 L79.83 60.13 L80.43 58.15 L80.90 56.15 L81.23 54.11 L81.43 52.06 L81.50 50.00 L81.43 47.94 Z M30.94 28.82 L31.21 28.57 L32.65 27.39 L34.17 26.30 L35.75 25.32 L37.40 24.44 L39.09 23.67 L40.84 23.01 L42.62 22.47 L44.44 22.05 L46.28 21.74 L48.14 21.56 L50.00 21.50 L51.86 21.56 L53.72 21.74 L55.56 22.05 L57.38 22.47 L59.16 23.01 L60.91 23.67 L62.60 24.44 L64.25 25.32 L65.83 26.30 L67.35 27.39 L68.79 28.57 L70.15 29.85 L71.43 31.21 L72.61 32.65 L73.70 34.17 L74.68 35.75 L75.56 37.40 L76.33 39.09 L76.99 40.84 L77.53 42.62 L77.95 44.44 L78.26 46.28 L78.44 48.14 L78.50 50.00 L78.44 51.86 L78.26 53.72 L77.95 55.56 L77.53 57.38 L76.99 59.16 L76.33 60.91 L75.56 62.60 L74.68 64.25 L73.70 65.83 L72.61 67.35 L71.43 68.79 L71.18 69.06 L30.94 28.82 Z M69.06 71.18 L68.79 71.43 L67.35 72.61 L65.83 73.70 L64.25 74.68 L62.60 75.56 L60.91 76.33 L59.16 76.99 L57.38 77.53 L55.56 77.95 L53.72 78.26 L51.86 78.44 L50.00 78.50 L48.14 78.44 L46.28 78.26 L44.44 77.95 L42.62 77.53 L40.84 76.99 L39.09 76.33 L37.40 75.56 L35.75 74.68 L34.17 73.70 L32.65 72.61 L31.21 71.43 L29.85 70.15 L28.57 68.79 L27.39 67.35 L26.30 65.83 L25.32 64.25 L24.44 62.60 L23.67 60.91 L23.01 59.16 L22.47 57.38 L22.05 55.56 L21.74 53.72 L21.56 51.86 L21.50 50.00 L21.56 48.14 L21.74 46.28 L22.05 44.44 L22.47 42.62 L23.01 40.84 L23.67 39.09 L24.44 37.40 L25.32 35.75 L26.30 34.17 L27.39 32.65 L28.57 31.21 L28.82 30.94 L69.06 71.18 Z"/>
</svg>
