<svg xmlns="http://www.w3.org/2000/svg" viewBox="0 0 100 100" width="100" height="100" role="img" aria-label="탕비실 PANTRY">
  <path fill="currentColor" fill-rule="evenodd" d="M44.71 38.76 L45.12 38.00 L45.47 37.24 L45.76 36.47 L45.98 35.70 L46.15 34.91 L46.25 34.12 L46.28 33.33 L46.25 32.54 L46.15 31.75 L45.98 30.97 L45.76 30.19 L45.47 29.42 L45.12 28.66 L44.71 27.91 L43.88 26.58 L43.56 26.00 L43.30 25.42 L43.09 24.86 L42.93 24.30 L42.81 23.75 L42.75 23.21 L42.72 22.67 L42.75 22.12 L42.81 21.58 L42.93 21.03 L43.09 20.47 L43.30 19.91 L43.56 19.34 L43.88 18.76 L44.25 18.17 L44.67 17.57 L45.18 16.93 L46.11 15.75 L43.75 13.89 L42.27 15.77 L41.75 16.50 L41.29 17.24 L40.88 18.00 L40.53 18.76 L40.24 19.53 L40.02 20.30 L39.85 21.09 L39.75 21.88 L39.72 22.67 L39.75 23.46 L39.85 24.25 L40.02 25.03 L40.24 25.81 L40.53 26.58 L40.88 27.34 L41.29 28.09 L42.12 29.42 L42.44 30.00 L42.70 30.58 L42.91 31.14 L43.07 31.70 L43.19 32.25 L43.25 32.79 L43.28 33.33 L43.25 33.88 L43.19 34.42 L43.07 34.97 L42.91 35.53 L42.70 36.09 L42.44 36.66 L42.12 37.24 L41.75 37.83 L41.33 38.43 L40.82 39.07 L39.89 40.25 L42.25 42.11 L43.73 40.23 L44.25 39.50 L44.71 38.76 Z M57.71 38.76 L58.12 38.00 L58.47 37.24 L58.76 36.47 L58.98 35.70 L59.15 34.91 L59.25 34.12 L59.28 33.33 L59.25 32.54 L59.15 31.75 L58.98 30.97 L58.76 30.19 L58.47 29.42 L58.12 28.66 L57.71 27.91 L57.27 27.21 L56.88 26.58 L56.56 26.00 L56.30 25.42 L56.09 24.86 L55.93 24.30 L55.81 23.75 L55.75 23.21 L55.72 22.67 L55.75 22.12 L55.81 21.58 L55.93 21.03 L56.09 20.47 L56.30 19.91 L56.56 19.34 L56.88 18.76 L57.25 18.17 L57.67 17.57 L58.18 16.93 L59.11 15.75 L56.75 13.89 L55.27 15.77 L54.75 16.50 L54.29 17.24 L53.88 18.00 L53.53 18.76 L53.24 19.53 L53.02 20.30 L52.85 21.09 L52.75 21.88 L52.72 22.67 L52.75 23.46 L52.85 24.25 L53.02 25.03 L53.24 25.81 L53.53 26.58 L53.88 27.34 L54.29 28.09 L54.73 28.79 L55.12 29.42 L55.44 30.00 L55.70 30.58 L55.91 31.14 L56.07 31.70 L56.19 32.25 L56.25 32.79 L56.28 33.33 L56.25 33.88 L56.19 34.42 L56.07 34.97 L55.91 35.53 L55.70 36.09 L55.44 36.66 L55.12 37.24 L54.75 37.83 L54.33 38.43 L53.82 39.07 L52.89 40.25 L55.25 42.11 L56.73 40.23 L57.25 39.50 L57.71 38.76 Z M75.50 44.50 L70.11 44.50 L68.73 44.30 L68.70 44.50 L31.30 44.50 L31.27 44.30 L29.89 44.50 L26.00 44.50 L24.50 44.50 L24.50 47.50 L28.70 47.50 L32.52 74.25 L32.66 74.98 L32.84 75.68 L33.06 76.35 L33.32 76.99 L33.63 77.60 L33.97 78.17 L34.36 78.70 L34.80 79.19 L35.27 79.64 L35.79 80.04 L36.34 80.39 L36.93 80.70 L37.54 80.95 L38.18 81.15 L38.85 81.31 L39.54 81.42 L40.26 81.48 L40.98 81.50 L59.02 81.50 L59.74 81.48 L60.46 81.42 L61.15 81.31 L61.82 81.15 L62.46 80.95 L63.07 80.70 L63.66 80.39 L64.21 80.04 L64.73 79.64 L65.20 79.19 L65.64 78.70 L66.03 78.17 L66.37 77.60 L66.68 76.99 L66.94 76.35 L67.16 75.68 L67.34 74.98 L67.48 74.25 L67.87 71.49 L68.88 71.47 L70.67 71.39 L72.35 71.24 L73.94 71.04 L75.43 70.78 L76.83 70.45 L78.13 70.06 L79.34 69.60 L80.45 69.08 L81.47 68.47 L82.39 67.79 L83.20 67.03 L83.90 66.19 L84.48 65.27 L84.93 64.28 L85.25 63.24 L85.44 62.14 L85.50 61.01 L85.45 59.89 L85.30 58.82 L85.05 57.80 L84.68 56.83 L84.21 55.92 L83.63 55.08 L82.95 54.30 L82.18 53.61 L81.31 52.99 L80.37 52.44 L79.34 51.97 L78.24 51.57 L77.06 51.24 L75.80 50.97 L74.47 50.76 L73.06 50.62 L71.57 50.53 L70.87 50.52 L71.30 47.50 L74.00 47.50 L75.50 47.50 L75.50 44.50 Z M64.52 73.75 L64.41 74.32 L64.28 74.84 L64.12 75.32 L63.94 75.75 L63.74 76.14 L63.53 76.50 L63.30 76.82 L63.04 77.10 L62.77 77.36 L62.48 77.59 L62.16 77.79 L61.81 77.97 L61.44 78.13 L61.02 78.26 L60.57 78.36 L60.09 78.44 L59.56 78.48 L58.98 78.50 L41.02 78.50 L40.44 78.48 L39.91 78.44 L39.43 78.36 L38.98 78.26 L38.56 78.13 L38.19 77.97 L37.84 77.79 L37.52 77.59 L37.23 77.36 L36.96 77.10 L36.70 76.82 L36.47 76.50 L36.26 76.14 L36.06 75.75 L35.88 75.32 L35.72 74.84 L35.59 74.32 L35.48 73.75 L31.73 47.50 L68.27 47.50 L64.52 73.75 Z M75.26 53.92 L76.34 54.15 L77.32 54.43 L78.20 54.75 L78.99 55.11 L79.69 55.51 L80.29 55.95 L80.81 56.42 L81.26 56.92 L81.63 57.47 L81.94 58.06 L82.18 58.70 L82.35 59.40 L82.46 60.17 L82.50 60.99 L82.45 61.80 L82.33 62.54 L82.12 63.22 L81.84 63.84 L81.47 64.42 L81.02 64.97 L80.47 65.49 L79.81 65.97 L79.05 66.42 L78.17 66.84 L77.17 67.22 L76.06 67.55 L74.83 67.84 L73.49 68.07 L72.04 68.26 L70.47 68.39 L68.79 68.47 L68.30 68.48 L70.44 53.51 L71.45 53.53 L72.82 53.61 L74.09 53.74 L75.26 53.92 Z"/>
</svg>
