<svg xmlns="http://www.w3.org/2000/svg" viewBox="0 0 100 100" width="100" height="100" role="img" aria-label="화장실 TOILET">
  <path fill="currentColor" fill-rule="evenodd" d="M40.50 24.50 L40.50 12.50 L28.50 12.50 L28.50 24.50 L40.50 24.50 Z M37.50 21.50 L31.50 21.50 L31.50 15.50 L37.50 15.50 L37.50 21.50 Z M71.50 12.50 L59.50 12.50 L59.50 24.50 L71.50 24.50 L71.50 12.50 Z M62.50 21.50 L62.50 15.50 L68.50 15.50 L68.50 21.50 L62.50 21.50 Z M40.21 28.50 L29.79 28.50 L22.14 63.50 L30.50 63.50 L30.50 83.00 L30.50 84.50 L33.50 84.50 L33.50 63.50 L36.50 63.50 L36.50 83.00 L36.50 84.50 L39.50 84.50 L39.50 63.50 L47.86 63.50 L40.21 28.50 Z M39.50 60.50 L36.50 60.50 L33.50 60.50 L30.50 60.50 L25.86 60.50 L32.21 31.50 L37.79 31.50 L44.14 60.50 L39.50 60.50 Z M72.51 83.17 L72.68 84.66 L75.66 84.32 L69.34 29.50 L60.66 29.50 L54.51 82.83 L54.34 84.32 L57.32 84.66 L63.34 32.50 L66.66 32.50 L72.51 83.17 Z"/>
</svg>
