<svg xmlns="http://www.w3.org/2000/svg" viewBox="0 0 100 100" width="100" height="100" role="img" aria-label="룸 ROOM">
  <path fill="currentColor" fill-rule="evenodd" d="M73.50 39.97 L73.48 39.46 L73.42 38.93 L73.32 38.41 L73.17 37.91 L72.97 37.43 L72.72 36.98 L72.42 36.56 L72.08 36.17 L71.69 35.83 L71.27 35.53 L70.82 35.27 L70.34 35.05 L69.83 34.87 L69.31 34.73 L68.77 34.63 L68.20 34.56 L67.61 34.51 L67.02 34.50 L32.98 34.50 L32.39 34.51 L31.80 34.56 L31.23 34.63 L30.69 34.73 L30.17 34.87 L29.66 35.05 L29.18 35.27 L28.73 35.53 L28.31 35.83 L27.92 36.17 L27.58 36.56 L27.28 36.98 L27.03 37.43 L26.83 37.91 L26.68 38.41 L26.58 38.93 L26.52 39.46 L26.50 39.97 L26.50 40.93 L26.45 40.91 L25.99 40.75 L25.52 40.64 L25.03 40.56 L24.52 40.51 L24.00 40.50 L23.48 40.51 L22.97 40.56 L22.48 40.64 L22.01 40.75 L21.55 40.91 L21.11 41.10 L20.69 41.34 L20.30 41.62 L19.94 41.94 L19.62 42.30 L19.34 42.69 L19.10 43.11 L18.91 43.55 L18.75 44.01 L18.64 44.48 L18.56 44.97 L18.51 45.48 L18.50 45.98 L18.50 65.50 L23.50 65.50 L23.50 71.00 L23.50 72.50 L26.50 72.50 L26.50 65.50 L29.50 65.50 L70.50 65.50 L72.00 65.50 L73.50 65.50 L73.50 71.00 L73.50 72.50 L76.50 72.50 L76.50 65.50 L81.50 65.50 L81.50 45.98 L81.49 45.48 L81.44 44.97 L81.36 44.48 L81.25 44.01 L81.09 43.55 L80.90 43.11 L80.66 42.69 L80.38 42.30 L80.06 41.94 L79.70 41.62 L79.31 41.34 L78.89 41.10 L78.45 40.91 L77.99 40.75 L77.52 40.64 L77.03 40.56 L76.52 40.51 L76.00 40.50 L75.48 40.51 L74.97 40.56 L74.48 40.64 L74.01 40.75 L73.55 40.91 L73.50 40.93 L73.50 39.97 Z M29.54 39.39 L29.60 39.14 L29.66 38.93 L29.74 38.74 L29.83 38.57 L29.93 38.43 L30.05 38.30 L30.19 38.17 L30.35 38.05 L30.55 37.94 L30.78 37.84 L31.05 37.74 L31.36 37.66 L31.71 37.59 L32.10 37.54 L32.53 37.51 L33.02 37.50 L66.98 37.50 L67.47 37.51 L67.90 37.54 L68.29 37.59 L68.64 37.66 L68.95 37.74 L69.22 37.84 L69.45 37.94 L69.65 38.05 L69.81 38.17 L69.95 38.30 L70.07 38.43 L70.17 38.57 L70.26 38.74 L70.34 38.93 L70.40 39.14 L70.46 39.39 L70.49 39.68 L70.50 40.03 L70.50 45.98 L70.50 46.00 L70.50 47.50 L70.50 50.50 L29.50 50.50 L29.50 47.50 L29.50 45.98 L29.50 40.03 L29.51 39.68 L29.54 39.39 Z M73.50 46.02 L73.51 45.66 L73.54 45.35 L73.58 45.07 L73.64 44.83 L73.71 44.63 L73.79 44.45 L73.87 44.30 L73.96 44.17 L74.06 44.06 L74.17 43.96 L74.30 43.87 L74.45 43.79 L74.63 43.71 L74.83 43.64 L75.07 43.58 L75.35 43.54 L75.66 43.51 L76.00 43.50 L76.34 43.51 L76.65 43.54 L76.93 43.58 L77.17 43.64 L77.37 43.71 L77.55 43.79 L77.70 43.87 L77.83 43.96 L77.94 44.06 L78.04 44.17 L78.13 44.30 L78.21 44.45 L78.29 44.63 L78.36 44.83 L78.42 45.07 L78.46 45.35 L78.49 45.66 L78.50 46.02 L78.50 62.50 L76.50 62.50 L73.50 62.50 L73.50 53.50 L73.50 50.50 L73.50 47.50 L73.50 46.02 Z M29.50 53.50 L70.50 53.50 L70.50 62.50 L29.50 62.50 L29.50 53.50 Z M26.50 50.50 L26.50 53.50 L26.50 62.50 L23.50 62.50 L21.50 62.50 L21.50 46.02 L21.51 45.66 L21.54 45.35 L21.58 45.07 L21.64 44.83 L21.71 44.63 L21.79 44.45 L21.87 44.30 L21.96 44.17 L22.06 44.06 L22.17 43.96 L22.30 43.87 L22.45 43.79 L22.63 43.71 L22.83 43.64 L23.07 43.58 L23.35 43.54 L23.66 43.51 L24.00 43.50 L24.34 43.51 L24.65 43.54 L24.93 43.58 L25.17 43.64 L25.37 43.71 L25.55 43.79 L25.70 43.87 L25.83 43.96 L25.94 44.06 L26.04 44.17 L26.13 44.30 L26.21 44.45 L26.29 44.63 L26.36 44.83 L26.42 45.07 L26.46 45.35 L26.49 45.66 L26.50 46.02 L26.50 47.50 L26.50 50.50 Z"/>
</svg>
