<svg xmlns="http://www.w3.org/2000/svg" viewBox="0 0 100 100" width="100" height="100" role="img" aria-label="소화기 FIRE EXTINGUISHER">
  <path fill="currentColor" fill-rule="evenodd" d="M67.50 32.38 L63.38 36.50 L56.50 36.50 L56.50 34.50 L47.50 34.50 L47.50 36.43 L45.98 36.44 L44.52 36.53 L43.12 36.72 L41.79 36.99 L40.52 37.35 L39.33 37.81 L38.20 38.36 L37.15 39.01 L36.18 39.76 L35.29 40.59 L34.48 41.52 L33.77 42.53 L33.15 43.62 L32.61 44.79 L32.16 46.04 L31.80 47.36 L31.52 48.77 L31.41 49.73 L31.34 50.63 L31.31 51.49 L31.30 52.33 L31.33 53.15 L31.40 53.94 L31.50 54.70 L31.63 55.43 L31.80 56.15 L32.01 56.83 L32.26 57.49 L32.55 58.12 L32.87 58.72 L33.24 59.28 L33.65 59.82 L34.09 60.32 L34.58 60.78 L35.05 61.16 L36.22 62.11 L38.11 59.78 L36.56 58.52 L36.25 58.23 L35.96 57.90 L35.70 57.56 L35.45 57.18 L35.23 56.77 L35.03 56.33 L34.85 55.86 L34.70 55.35 L34.57 54.81 L34.46 54.23 L34.38 53.62 L34.33 52.97 L34.30 52.28 L34.31 51.56 L34.34 50.80 L34.40 50.01 L34.48 49.23 L34.72 48.05 L35.02 46.95 L35.39 45.93 L35.82 44.99 L36.30 44.14 L36.85 43.37 L37.45 42.67 L38.12 42.05 L38.85 41.49 L39.65 40.99 L40.53 40.57 L41.48 40.20 L42.51 39.91 L43.62 39.68 L44.81 39.52 L46.09 39.44 L47.45 39.43 L47.50 39.43 L47.50 41.24 L47.10 41.39 L46.27 41.80 L45.49 42.29 L44.78 42.85 L44.13 43.49 L43.56 44.21 L43.06 44.99 L42.63 45.83 L42.28 46.72 L41.99 47.67 L41.77 48.68 L41.62 49.73 L41.53 50.84 L41.50 51.98 L41.50 72.50 L41.50 75.50 L41.50 83.50 L62.50 83.50 L62.50 75.50 L62.50 72.50 L62.50 51.98 L62.47 50.84 L62.38 49.73 L62.23 48.68 L62.01 47.67 L61.72 46.72 L61.37 45.83 L60.94 44.99 L60.44 44.21 L59.87 43.49 L59.22 42.85 L58.51 42.29 L57.73 41.80 L56.90 41.39 L56.50 41.24 L56.50 39.50 L62.38 39.50 L67.50 44.62 L67.50 32.38 Z M50.50 38.04 L50.53 37.50 L53.50 37.50 L53.50 39.50 L53.50 40.58 L53.07 40.53 L52.00 40.50 L50.93 40.53 L50.50 40.58 L50.50 38.04 Z M44.73 49.21 L44.90 48.42 L45.11 47.71 L45.37 47.06 L45.66 46.48 L46.00 45.96 L46.37 45.51 L46.78 45.10 L47.23 44.74 L47.73 44.42 L48.29 44.15 L48.90 43.92 L49.58 43.74 L50.32 43.61 L51.13 43.53 L52.00 43.50 L52.87 43.53 L53.68 43.61 L54.42 43.74 L55.10 43.92 L55.71 44.15 L56.27 44.42 L56.77 44.74 L57.22 45.10 L57.63 45.51 L58.00 45.96 L58.34 46.48 L58.63 47.06 L58.89 47.71 L59.10 48.42 L59.27 49.21 L59.40 50.07 L59.47 51.00 L59.50 52.02 L59.50 72.50 L44.50 72.50 L44.50 52.02 L44.53 51.00 L44.60 50.07 L44.73 49.21 Z M44.50 75.50 L59.50 75.50 L59.50 80.50 L44.50 80.50 L44.50 75.50 Z"/>
</svg>
